<?xml version="1.0" encoding="UTF-8"?>
<svg id="Layer_1" xmlns="http://www.w3.org/2000/svg" version="1.1" viewBox="0 0 609.3 175.8">
  <!-- Generator: Adobe Illustrator 29.5.1, SVG Export Plug-In . SVG Version: 2.1.0 Build 141)  -->
  <defs>
    <style>
      .st0 {
        fill: #f24d29;
      }

      .st1 {
        fill: #00223b;
      }
    </style>
  </defs>
  <path class="st0" d="M63.2,110.6v-15.3h14.1v16.4c0,13.6-4.6,25.4-17.7,25.4h-2.5c-13.2,0-18.4-10.4-18.4-26.5v-46c0-16.2,5.1-26.1,18.1-26.1h2.5c13.1,0,18,8.8,18,24.9v12.3h-14.1v-11.1c0-5.8-1.2-9.2-5-9.2s-4.8,3.2-4.8,9.2v46c0,6.1,1.3,9.3,4.8,9.3s5-3.5,5-9.2Z"/>
  <path class="st0" d="M122.7,109.9c0,17.1-6.1,27.2-18.9,27.2h-2.3c-13.2,0-19-10.2-19-27.2v-44.7c0-17,5.7-26.9,18.9-26.9h2.3c13.2,0,19,10,19,26.9v44.7ZM107.9,65.5c0-6.9-1.9-9.7-5.3-9.7s-5.3,2.8-5.3,9.7v44.4c0,6.3,1.7,9.6,5.3,9.6s5.3-3.2,5.3-9.6v-44.4Z"/>
  <path class="st0" d="M158,137.1h-6.8l-6.2-43.4c-2-13.5-3-22-4-30,.2,9.7.3,19,.3,32.6v40.7h-12.4V38.5h18.7l4.6,34.2c1.4,10.5,2.1,16.8,2.7,23.1.7-6.2,1.3-12.5,2.7-23.1l4.7-34.2h18.3v98.6h-12.7v-40.7c0-13.7.3-22.8.5-32.6-1,7.7-2.2,16.4-4.1,29.4l-6.4,43.9Z"/>
  <path class="st0" d="M186.7,38.5h24.2c10.7,0,15,6.1,15,20v7.6c0,11-3.8,15.4-6.9,17,3.5,1.7,8.2,5.8,8.2,18.4v13.1c0,14.2-5.3,22.5-15.9,22.5h-24.6V38.5ZM201.3,53.6v23.6h5c3.7,0,5.2-2.7,5.2-8.6v-6.8c0-6-1.3-8.2-5.3-8.2h-4.9ZM201.3,92.8v28.5h5.3c4.1,0,5.5-2.5,5.5-8.7v-10.9c0-6.2-1.5-8.9-5.6-8.9h-5.2Z"/>
  <path class="st0" d="M256.1,120.7h-12.1l-1.8,16.4h-13l11.6-98.6h19.1l12.4,98.6h-14.4l-1.8-16.4ZM245.8,104.1h8.5l-2.1-19.2c-1.1-10.5-1.8-18-2.2-23.9-.4,5.8-1.1,13.5-2.2,23.9l-2.1,19.2Z"/>
  <path class="st0" d="M280.8,56.4h-11.3v-17.9h37.2v17.9h-11.3v80.7h-14.7V56.4Z"/>
  <path class="st1" d="M314,116.4v-14.6h14.1v11.8c0,4.7,1.8,7.1,5.1,7.1s4.9-2.8,4.9-8.3v-1c0-6-1.6-8.9-5.2-13.1l-9.1-10.2c-6-6.7-9.2-13.3-9.2-24.5v-2.7c0-14.6,6-22.3,18.3-22.3h2.1c12,0,17.5,7,17.5,19.7v11.3h-13.9v-8.2c0-5.2-1.5-7.4-4.6-7.4s-4.9,2.1-4.9,7v.6c0,5.2,1.5,7.8,5,11.9l9.1,10.4c6.7,7.8,10.1,13.7,10.1,26v2.7c0,13.7-5.4,24.6-19,24.6h-2.2c-12.3,0-18-8-18-20.8Z"/>
  <path class="st1" d="M368.5,56.4h-11.3v-17.9h37.3v17.9h-11.3v80.9h-14.7V56.4Z"/>
  <path class="st1" d="M414.8,137.3h-14.7V38.6h25.1c9.2,0,14.1,6,14.1,19.2v9.1c0,10.1-3.4,15-7.3,17,4.2,2.3,7.3,6.8,7.3,16.4v26c0,4.8.5,8.1,1.1,10.2v.7h-14.6c-.7-1.5-1.2-4.2-1.2-9.9v-23.3c0-6.2-1.4-8.9-5.1-8.9h-4.7v42.2ZM414.8,78.9h4.6c3.7,0,5.2-2.9,5.2-8.5v-8.5c0-6-1.3-8.2-5.2-8.2h-4.6v25.2Z"/>
  <path class="st1" d="M480.1,38.6v17.9h-18.5v20.7h15.5v18.3h-15.5v23.6h19v18.2h-33.5V38.6h33Z"/>
  <path class="st1" d="M486.3,116.4v-14.6h14.1v11.8c0,4.7,1.8,7.1,5.1,7.1s4.9-2.8,4.9-8.3v-1c0-6-1.6-8.9-5.2-13.1l-9.1-10.2c-6-6.7-9.2-13.3-9.2-24.5v-2.7c0-14.6,6-22.3,18.3-22.3h2.1c12,0,17.5,7,17.5,19.7v11.3h-13.9v-8.2c0-5.2-1.5-7.4-4.6-7.4s-4.9,2.1-4.9,7v.6c0,5.2,1.5,7.8,5,11.9l9.1,10.4c6.8,7.8,10.1,13.7,10.1,26v2.7c0,13.7-5.4,24.6-19,24.6h-2.2c-12.3,0-18-8-18-20.8Z"/>
  <path class="st1" d="M531.5,116.4v-14.6h14.1v11.8c0,4.7,1.8,7.1,5.1,7.1s4.9-2.8,4.9-8.3v-1c0-6-1.6-8.9-5.2-13.1l-9.1-10.2c-6-6.7-9.2-13.3-9.2-24.5v-2.7c0-14.6,6-22.3,18.3-22.3h2.1c12,0,17.5,7,17.5,19.7v11.3h-13.9v-8.2c0-5.2-1.5-7.4-4.6-7.4s-4.9,2.1-4.9,7v.6c0,5.2,1.5,7.8,5,11.9l9.1,10.4c6.8,7.8,10.1,13.7,10.1,26v2.7c0,13.7-5.4,24.6-19,24.6h-2.2c-12.3,0-18-8-18-20.8Z"/>
</svg>