<svg xmlns="http://www.w3.org/2000/svg" width="362" height="76" viewBox="0 0 362 76"><path fill="#20191B" d="M15.673 50.684C10.56 50.684 4.837 48.98 0 45.162l4.43-6.808c3.952 2.857 8.106 4.357 11.512 4.357 3 0 4.365-1.09 4.365-2.72v-.14c0-2.25-3.548-2.99-7.566-4.22-5.1-1.49-10.9-3.88-10.9-10.96v-.14c0-7.42 6-11.58 13.36-11.58 4.63 0 9.67 1.57 13.63 4.23l-3.95 7.16c-3.6-2.11-7.22-3.41-9.87-3.41-2.52 0-3.82 1.09-3.82 2.52v.14c0 2.05 3.48 3 7.43 4.37 5.11 1.7 11.04 4.16 11.04 10.83v.14c0 8.11-6.06 11.79-13.96 11.79m31.77 0c-5.11 0-10.83-1.71-15.67-5.52l4.43-6.8c3.95 2.86 8.1 4.36 11.51 4.36 3 0 4.36-1.09 4.36-2.72v-.14c0-2.25-3.54-2.997-7.56-4.23-5.12-1.5-10.91-3.883-10.91-10.963v-.14c0-7.423 6-11.583 13.36-11.583 4.63 0 9.67 1.57 13.62 4.23l-3.95 7.16c-3.61-2.11-7.22-3.41-9.88-3.41-2.52 0-3.82 1.09-3.82 2.52v.14c0 2.04 3.48 3 7.43 4.36 5.1 1.7 11.03 4.155 11.03 10.83v.137c0 8.1-6.06 11.79-13.96 11.79M81.9 13.12c-6.2 0-10.15 1.16-14.17 2.93l2.59 7.902c3.34-1.226 6.13-1.976 10.08-1.976 5.18 0 7.83 2.39 7.83 6.68v.61c-2.59-.89-5.25-1.5-8.93-1.5-8.66 0-14.72 3.68-14.72 11.65v.14c0 7.22 5.65 11.17 12.54 11.17 5.03 0 8.51-1.84 11.03-4.63V50h10.02V28.812c0-9.878-4.98-15.74-16.29-15.74m6.48 24.053c0 3.744-3.27 6.402-8.103 6.402-3.34 0-5.65-1.64-5.65-4.43v-.135c0-3.27 2.73-5.04 7.16-5.04 2.52 0 4.838.545 6.61 1.362v1.84zm32.21-28.4c-2.38 0-3.742 1.226-3.742 3.95v1.433h8.38v8.448h-8.25V50H106.6V22.555h-4.293V14.04h4.293v-2.315C106.603 3.68 110.617 0 117.91 0c3.272 0 5.45.41 7.36 1.025v8.583c-1.502-.544-2.93-.883-4.704-.883m23.15 4.348c-6.198 0-10.147 1.16-14.17 2.93l2.584 7.904c3.345-1.225 6.14-1.975 10.088-1.975 5.183 0 7.837 2.386 7.837 6.676v.615c-2.593-.89-5.248-1.5-8.927-1.5-8.655 0-14.717 3.677-14.717 11.65v.14c0 7.22 5.66 11.17 12.54 11.17 5.05 0 8.52-1.84 11.04-4.634V50H160V28.812c0-9.878-4.973-15.74-16.284-15.74m6.472 24.053c0 3.744-3.27 6.402-8.104 6.402-3.34 0-5.658-1.64-5.658-4.43v-.135c0-3.27 2.727-5.04 7.156-5.04 2.52 0 4.834.545 6.605 1.362v1.84z"/><path fill="#21356A" d="M0 62h53.334v10H0z"/><path fill="#EF3F49" d="M53.334 62h53.333v10H53.334z"/><path fill="#149BD7" d="M106.667 62H160v10h-53.333z"/><path d="M183.023 16.42l-.003-8.397h-1.938v-1.83h1.938v-4.2h2.07v4.2l4.416-.002v1.84h-4.414l.002 8.13c0 1.7.942 2.32 2.344 2.32.697 0 1.29-.13 2.017-.48v1.78c-.726.38-1.508.6-2.503.6-2.232 0-3.928-1.1-3.93-3.93M193.164.46h2.07l.004 8.155c.915-1.507 2.367-2.72 4.76-2.72 3.367 0 5.333 2.26 5.333 5.57l.01 8.64h-2.07v-8.128c0-2.584-1.4-4.198-3.85-4.197-2.39 0-4.17 1.75-4.17 4.36v7.968h-2.07l-.01-19.65zm14.64 12.728v-.055c0-4.01 2.826-7.24 6.676-7.24 4.116 0 6.486 3.28 6.486 7.345 0 .27.003.43-.026.674h-11.034c.296 3.016 2.422 4.71 4.9 4.71 1.91 0 3.256-.782 4.386-1.967l1.292 1.158c-1.398 1.563-3.094 2.613-5.732 2.614-3.822 0-6.946-2.933-6.948-7.238m11.062-.82c-.216-2.53-1.668-4.74-4.44-4.74-2.423 0-4.253 2.02-4.522 4.74l8.962-.01zm-30.163 14.72h3.823l8.08 18.97h-4.334l-1.722-4.23-7.97.01-1.72 4.22h-4.227l8.07-18.98zm4.365 11.09l-2.504-6.1-2.503 6.11h5.01zm8.93-6.54h4.09l.003 2.91c.84-2 2.18-3.29 4.6-3.18v4.28h-.21c-2.72 0-4.38 1.64-4.38 5.09v5.33h-4.09L202 31.64zm10.712 0h4.09v2.04c.943-1.21 2.18-2.32 4.252-2.32 1.884 0 3.31.83 4.065 2.29 1.263-1.48 2.772-2.29 4.735-2.29 3.04 0 4.87 1.83 4.872 5.3l.003 9.39h-4.09l-.003-8.05c0-1.94-.863-2.94-2.396-2.94-1.534 0-2.477 1-2.476 2.94v8.04h-4.088l-.002-8.05c-.002-1.94-.86-2.93-2.396-2.93-1.534 0-2.478 1-2.478 2.94l.003 8.04h-4.09v-14.4zm23.79 7.29v-.06c-.002-4.12 2.932-7.51 7.13-7.52 4.816 0 7.026 3.74 7.026 7.83 0 .32-.027.7-.054 1.08h-10.04c.405 1.85 1.697 2.82 3.526 2.82 1.373 0 2.37-.43 3.498-1.48l2.344 2.07c-1.347 1.67-3.282 2.69-5.893 2.69-4.334 0-7.536-3.04-7.538-7.46m10.17-1.22c-.25-1.83-1.32-3.07-3.05-3.07-1.7 0-2.8 1.21-3.12 3.07l6.16-.01zm5.3 1.15v-.05c0-4.82 3.14-7.46 6.56-7.46 2.18 0 3.53.99 4.49 2.15v-7.1l4.09-.008.01 19.65h-4.1v-2.07c-1 1.346-2.37 2.34-4.49 2.34-3.37 0-6.57-2.63-6.57-7.45m11.12 0v-.05c0-2.39-1.59-3.98-3.5-3.98-1.92 0-3.53 1.56-3.53 3.99v.06c0 2.397 1.61 3.984 3.52 3.984s3.5-1.59 3.5-3.98m14.04-11.66h14.34v3.763h-10.2v4.01h8.99v3.77h-8.99v7.295h-4.14m15.04-7.135v-.053c0-4.14 3.33-7.51 7.83-7.51 4.46 0 7.78 3.31 7.78 7.456v.05c0 4.147-3.34 7.51-7.83 7.51-4.47.006-7.78-3.304-7.78-7.45m11.57-.005v-.055c0-2.13-1.54-3.99-3.8-3.99-2.34 0-3.74 1.81-3.74 3.93v.06c0 2.126 1.53 3.98 3.79 3.98 2.34 0 3.74-1.8 3.74-3.93m5.92-7.294h4.09v2.9c.83-1.99 2.18-3.28 4.6-3.18v4.28h-.22c-2.72 0-4.39 1.65-4.39 5.09v5.33h-4.1l-.01-14.43zm9.61 7.29v-.054c0-4.12 3.14-7.51 7.56-7.51 2.72 0 4.41.91 5.76 2.42l-2.51 2.69c-.91-.97-1.83-1.59-3.28-1.585-2.05 0-3.5 1.807-3.5 3.93v.055c0 2.21 1.43 3.988 3.66 3.988 1.37 0 2.31-.59 3.31-1.538l2.39 2.42c-1.4 1.54-3.01 2.64-5.89 2.64-4.33 0-7.51-3.33-7.51-7.45m14.42 0v-.056c0-4.117 2.93-7.51 7.13-7.51 4.82 0 7.03 3.74 7.03 7.83 0 .33-.03.7-.06 1.08l-10.04.003c.4 1.86 1.7 2.824 3.53 2.824 1.37 0 2.36-.43 3.49-1.48l2.34 2.07c-1.348 1.67-3.287 2.69-5.898 2.693-4.33 0-7.53-3.04-7.54-7.45m10.18-1.215c-.244-1.83-1.32-3.066-3.044-3.06-1.697 0-2.8 1.21-3.12 3.064h6.16zm5.35 6.432l1.75-2.69c1.56 1.13 3.2 1.72 4.55 1.72 1.19 0 1.73-.43 1.73-1.08v-.05c0-.89-1.4-1.18-2.99-1.67-2.02-.59-4.31-1.53-4.31-4.33v-.05c0-2.93 2.367-4.576 5.273-4.577 1.83 0 3.82.612 5.384 1.66l-1.56 2.83c-1.43-.83-2.856-1.34-3.905-1.34-1 0-1.51.43-1.51 1v.056c0 .81 1.37 1.185 2.94 1.72 2.02.676 4.36 1.645 4.36 4.28v.055c0 3.2-2.4 4.657-5.52 4.66-2.02 0-4.28-.673-6.19-2.18M181.42 65.18v-.07c0-3.93 3.064-7.27 7.13-7.27 2.636 0 4.28 1.105 5.572 2.476l-1.37 1.453c-1.1-1.16-2.34-2.1-4.22-2.1-2.83 0-4.98 2.4-4.98 5.39v.05c0 3.02 2.205 5.41 5.11 5.41 1.78 0 3.15-.89 4.253-2.07l1.32 1.24c-1.4 1.56-3.07 2.69-5.68 2.69-4.06 0-7.13-3.31-7.13-7.21m16.23-12.76h2.07l.002 8.15c.914-1.51 2.366-2.72 4.76-2.72 3.36 0 5.33 2.26 5.33 5.57v8.64h-2.073l-.008-8.13c0-2.58-1.4-4.2-3.85-4.2-2.396 0-4.17 1.75-4.17 4.36l.003 7.97h-2.08V52.4zM212.652 68v-.054c0-2.93 2.424-4.493 5.95-4.494 1.776 0 3.04.24 4.28.59v-.484c0-2.504-1.534-3.795-4.15-3.794-1.64 0-2.93.43-4.222 1.02l-.62-1.7c1.54-.7 3.04-1.16 5.06-1.16 1.97 0 3.47.51 4.5 1.534.94.94 1.43 2.286 1.43 4.062v8.503h-1.99v-2.1c-.97 1.268-2.58 2.4-5.03 2.4-2.58 0-5.193-1.48-5.194-4.33m10.25-1.08v-1.34c-1.02-.298-2.39-.594-4.09-.594-2.61 0-4.06 1.13-4.06 2.88v.05c0 1.75 1.61 2.77 3.5 2.77 2.555-.01 4.65-1.57 4.65-3.77m5.3-8.81h2.07v3.63c1.025-2.32 3.045-3.99 5.68-3.88v2.24h-.16c-3.04 0-5.52 2.18-5.515 6.38v5.54h-2.07v-13.9zm10.41-5.33H241v2.29h-2.37v-2.29zm.14 5.33h2.07l.006 13.91h-2.07l-.01-13.92zm7.08 10.22v-8.4h-1.94V58.1h1.94l-.004-4.2 2.076-.002v4.2l4.416-.002v1.83l-4.41.002v8.13c.01 1.693.95 2.31 2.35 2.31.698 0 1.29-.135 2.018-.483v1.777c-.726.375-1.507.592-2.503.592-2.24 0-3.93-1.103-3.93-3.93m20.55-10.23h2.21l-5.84 14.372c-1.18 2.88-2.53 3.93-4.63 3.93-1.16 0-2.02-.24-2.96-.696l.7-1.642c.68.35 1.29.51 2.18.51 1.24 0 2.02-.646 2.85-2.61l-6.33-13.86 2.28-.002 5.06 11.6 4.47-11.603zM169.19 0h1.33v71.938h-1.33z"/></svg>