<?xml version="1.0" encoding="UTF-8"?>
<svg viewBox="0 0 283.46 181.66" xmlns="http://www.w3.org/2000/svg">
  <defs>
    <style>.cls-1{fill:#0058a5;}.cls-2{fill:#e5231b;}.cls-3{fill:#161412;}</style>
  </defs>
  <path class="cls-1" transform="translate(-279.21 -206.81)" d="M561.11,307.11h0a1.57,1.57,0,0,0-1.5,1.12c-1.91,6.6-14,41-62.54,41.14a.38.38,0,0,1-.37-.37V229c0-11.44,9.89-14.26,13.35-14.77a1.42,1.42,0,0,0,1.2-1.42h0a1.42,1.42,0,0,0-1.43-1.42H436.7c18.9,6.93,31.83,21.23,31.83,39.11a40.91,40.91,0,0,1-6.68,21.93.25.25,0,0,0,.06.32c9.56,7.57,15.3,17.65,15.3,29.53,0,21.49-18.76,42.47-44.95,50.36H556.83a2.27,2.27,0,0,0,2.26-2.08l3.58-41.73A1.57,1.57,0,0,0,561.11,307.11Z" />
  <path class="cls-1" transform="translate(-279.21 -206.81)" d="M384.73,289.88a42.32,42.32,0,0,0-20.3-7.41.22.22,0,0,1,0-.44c7.48-1.3,29.94-7.48,29.94-34.9,0-33.22-29.74-35.76-59.2-35.76H280.62a1.41,1.41,0,0,0-1.41,1.4h0a1.43,1.43,0,0,0,1.2,1.44c3.5.45,13.36,3.46,13.36,14.77V335c-.13,11.38-9.52,14.13-13.35,14.77a1.39,1.39,0,0,0-1.21,1.38,1.46,1.46,0,0,0,1.46,1.46h62.87a1.43,1.43,0,0,0,.23-2.84c-3.44-.54-13.12-3.1-13.34-14.77V284.77a.37.37,0,0,1,.36-.37c16.3-.22,22.42,7,33.44,39.18,16,46.66,68,29,68,29C399.85,355.25,407.5,306,384.73,289.88ZM330.43,229c-.45-13.28,8.55-14.14,10.66-14.14,15,0,16.66,16.35,16.66,32.07,0,16.06-5.51,34.65-27,34.24a.37.37,0,0,1-.36-.37Z" />
  <path class="cls-2" transform="translate(-279.21 -206.81)" d="m461.91 272.73a0.25 0.25 0 0 1-0.06-0.32 40.91 40.91 0 0 0 6.68-21.93c0-25.48-26.24-43.67-58.6-43.67-13.79 0-26.46 3.3-36.47 9.05 12.4 4.53 20.89 13.52 20.89 31.27 0 27.42-22.46 33.6-29.94 34.9a0.22 0.22 0 0 0 0 0.44 42.32 42.32 0 0 1 20.3 7.41c22.77 16.15 15.12 65.37 47.52 62.74 26.19-7.89 45-28.87 45-50.36-0.02-11.88-5.76-21.96-15.32-29.53z" />
  <circle class="cls-3" cx="130.71" cy="71.39" r="20.87" />
  <path class="cls-1" transform="translate(-279.21 -206.81)" d="M438.25,376.3c1.18,0,2.69,1.63,2.69,1.63l2.11-2a7,7,0,0,0-4.8-2.47,4.63,4.63,0,0,0-3.39,1.4,4.06,4.06,0,0,0-1.07,2.8c0,1,.11,2.63,3.53,4.26,1.76.84,2.5,1.24,2.62,2.1.06.39,0,1.61-1.65,1.61a4.43,4.43,0,0,1-3.24-1.81l-2.27,1.81a7,7,0,0,0,5.54,2.84,4.52,4.52,0,0,0,3.51-1.48,4,4,0,0,0,1.05-3.39c-.34-2.24-2.4-3.36-4.38-4.3-.9-.46-1.77-.9-1.76-1.79A1.29,1.29,0,0,1,438.25,376.3Z" />
  <path class="cls-1" transform="translate(-279.21 -206.81)" d="m376 380.56a4.44 4.44 0 0 0-3.63-7h-5.93v14.81h6.67a4.44 4.44 0 0 0 2.89-7.81zm-6.59-4h3a1.48 1.48 0 0 1 0 3h-3zm3.7 8.89h-3.7v-3h3.7a1.48 1.48 0 0 1 0 3z" />
  <polygon class="cls-1" points="127.81 169.72 132.99 169.72 132.99 181.56 135.96 181.56 135.96 169.72 141.14 169.72 141.14 166.76 127.81 166.76" />
  <polygon class="cls-1" points="178.13 172.68 171.46 172.68 171.46 166.76 168.5 166.76 168.5 181.56 171.46 181.56 171.46 175.64 178.13 175.64 178.13 181.56 181.09 181.56 181.09 166.76 178.13 166.76" />
  <path class="cls-1" transform="translate(-279.21 -206.81)" d="M393,378a4.44,4.44,0,0,0-4.44-4.44h-5.92v14.81h3v-5.92H387l3,5.92h3.31l-3.1-6.19A4.45,4.45,0,0,0,393,378Zm-4.44,1.48h-3v-3h3a1.48,1.48,0,0,1,0,3Z" />
  <polygon class="cls-1" points="119.75 181.56 122.71 181.56 122.71 174.16 122.71 166.76 119.75 166.76 119.75 174.16" />
  <polygon class="cls-1" points="146.24 181.56 149.2 181.56 149.2 174.16 149.2 166.76 146.24 166.76 146.24 174.16" />
  <polygon class="cls-1" points="240.66 181.56 243.62 181.56 243.62 174.16 243.62 166.76 240.66 166.76 240.66 174.16" />
  <path class="cls-1" transform="translate(-279.21 -206.81)" d="m291.18 378a4.44 4.44 0 0 0-4.44-4.44h-5.92v14.81h3v-5.92h1.3l3 5.92h3.31l-3.09-6.19a4.46 4.46 0 0 0 2.84-4.18zm-4.44 1.48h-3v-3h3a1.48 1.48 0 0 1 0 3z" />
  <polygon class="cls-1" points="39.02 171.58 35.64 166.76 32.03 166.76 37.54 174.63 37.54 181.56 40.5 181.56 40.5 174.63 46.01 166.76 42.39 166.76" />
  <path class="cls-1" transform="translate(-279.21 -206.81)" d="m331.5 373.56-5.76 14.81h3.18l1.44-3.7h5.78l1.44 3.7h3.18l-5.76-14.81zm0 8.14 1.74-4.47 1.76 4.47z" />
  <polygon class="cls-1" points="68.64 166.76 65.68 166.76 65.68 181.56 76.04 181.56 76.04 178.6 68.64 178.6" />
  <path class="cls-1" transform="translate(-279.21 -206.81)" d="m302.2 373.56a7.41 7.41 0 1 0 7.4 7.41 7.41 7.41 0 0 0-7.4-7.41zm0 11.85a4.45 4.45 0 1 1 4.44-4.44 4.45 4.45 0 0 1-4.44 4.44z" />
  <polygon class="cls-1" points="195.29 166.76 192.33 166.76 192.33 181.56 202.69 181.56 202.69 178.6 195.29 178.6" />
  <path class="cls-1" transform="translate(-279.21 -206.81)" d="M511.58,384.28a4.45,4.45,0,1,1,.51-6.09l2.31-1.85a7.41,7.41,0,1,0-.23,9.52l.37-.42v-3.73h-3Z" />
  <path class="cls-1" transform="translate(-279.21 -206.81)" d="m535.08 373.56a7.41 7.41 0 1 0 7.41 7.41 7.41 7.41 0 0 0-7.41-7.41zm0 11.85a4.45 4.45 0 1 1 4.44-4.44 4.45 4.45 0 0 1-4.44 4.44z" />
  <polygon class="cls-1" points="277.41 166.76 277.41 176.57 271.03 166.76 267.79 166.76 267.79 181.56 270.75 181.56 270.75 171.75 277.13 181.56 279.74 181.56 280.37 181.56 280.37 166.76" />
  <polygon class="cls-1" points="210.68 175.64 214.37 175.64 214.37 172.68 210.68 172.68 210.68 169.72 217.36 169.72 217.36 166.76 207.72 166.76 207.72 166.76 207.72 166.76 207.72 181.56 207.72 181.56 207.72 181.56 218.08 181.56 218.08 178.6 210.68 178.6" />
</svg>