<?xml version="1.0" encoding="utf-8"?>
<!-- Generator: Adobe Illustrator 26.2.1, SVG Export Plug-In . SVG Version: 6.00 Build 0)  -->
<svg version="1.1" id="Layer_1" xmlns="http://www.w3.org/2000/svg" xmlns:xlink="http://www.w3.org/1999/xlink" x="0px" y="0px"
	 viewBox="0 0 607 174.4" style="enable-background:new 0 0 607 174.4;" xml:space="preserve">
<style type="text/css">
	.st0{fill:#F80000;}
	.st1{fill:#63A7D6;}
	.st2{fill:#005397;}
	.st3{fill:#0057B8;}
</style>
<g>
	<g>
		<g>
			<polygon class="st0" points="99.2,0 99.2,19.4 112.3,19.4 112.3,103.2 99.2,103.2 99.2,122.6 145.7,122.6 145.7,103.2 
				132.7,103.2 132.7,0 			"/>
			<path class="st0" d="M207.6,124.7c12.8-0.9,23.2-6.3,31.7-14.8l-13.8-13.8c-5.1,4.9-10.6,8.2-17.9,9V124.7L207.6,124.7z"/>
			<path class="st0" d="M294,124.7v-18.9c-7.1-1.6-10.7-6.5-11.6-11.6h-17.5v28.4h14l0.3-4.1C283.7,121.6,287.8,123.6,294,124.7z"/>
			<path class="st0" d="M433.2,103V61.3c-0.3-21.5-16-39.2-37.5-39.2c-2.4,0-4.3,0.3-6.5,0.8v20.5c2-0.9,4.1-1.4,6.5-1.4
				c10.6,0,17,8.9,17,19.8v60.8h33.4V103H433.2L433.2,103z"/>
		</g>
		<g>
			<path class="st1" d="M198.3,105.1c-15.8-1.7-27.3-15.3-27.3-31.5c0-16.5,11.4-30,27.3-31.7V22.1c-26.7,1.9-46.7,24.2-46.7,51.4
				c0,27.1,20,49.4,46.7,51.1V105.1L198.3,105.1z"/>
			<path class="st1" d="M291.5,61.3c-5.4-1.5-8.9-5.1-8.9-10c0-5.2,3.7-10.3,11.5-10.6V22.1c-19.2,0.7-30.4,10.6-30.4,28.4
				c0,14.3,8,24.7,22.8,29l19.6,5.4c5.8,1.7,9.5,5.5,9.5,9.9c0,5.3-2.6,11.2-12.2,11.9v18.9c19.9-0.5,31.1-13,31.1-30.2
				c0-12.9-8.3-24.5-23.5-28.8L291.5,61.3L291.5,61.3z"/>
			<path class="st1" d="M564.2,59.3c-5.8,0.4-13.2,0.7-18.7,0.7c-17.7,0-31.8,14.3-31.8,32c0,17.4,14.6,32.7,32.7,32.7
				c5.8,0,12.3-1.2,17.8-2.8v-19.6c-5,2.3-11.1,4-17.6,4c-7.7,0-13.3-6.1-13.3-14c0-7.5,5.5-13.6,12.3-13.6c5.5,0,12.9-0.3,18.7-1.1
				L564.2,59.3z"/>
		</g>
		<g>
			<path class="st2" d="M13.1,103.2H0v19.4h33.6v-53h22.7c9,0,16.5,7.5,16.5,16.7c0,9-7.5,16.9-16.5,16.9H42.9v19.4h12.7
				c20.3,0,36.8-16.7,36.8-37C92.4,75.2,88,65.7,81,59c4.8-6.1,7.8-14,7.8-22.3C88.7,16.3,72.2,0,51.9,0h-9.1v19.4h9.8
				c9,0,16.3,7.5,16.3,16.7c0,9-7.3,16.5-16.3,16.5h-19V0H0v19.4h13.1V103.2L13.1,103.2z"/>
			<path class="st2" d="M207.6,41.9c13.1,1.4,22.5,10.7,25.9,22.8h-34.2v17.4h54.5c0.3-2.9,0.5-5.8,0.5-8.5
				c0-27.2-20-49.6-46.7-51.4V41.9L207.6,41.9z"/>
			<path class="st2" d="M332.7,24.5h-13.8l-0.7,3.9c-4.1-3.9-9.8-6-14.8-6.3v18.5c6.6,1.9,10.5,6.2,12,12.3h17.2L332.7,24.5
				L332.7,24.5z"/>
			<path class="st2" d="M494.6,103V62c0-21.8-15.8-39.9-37.5-39.9c-10,0-18.4,3.7-25.3,9.8c3.3,4.7,7,11.8,9.2,19.7
				c3.3-5.7,9-9.5,16.2-9.5c10.7,0,17,8.9,17,19.8v60.8h33.4V103H494.6L494.6,103z"/>
			<polygon class="st2" points="346.6,44.3 359.5,44.3 359.5,103 346.6,103 346.6,122.6 379.9,122.6 379.9,24.5 346.6,24.5 			"/>
			<path class="st2" d="M573.5,122.6H607v-19.4h-13.1V63.7c0-23-19.4-41.6-42.4-41.6c-10.7,0-20.6,3.9-28.3,10.9l13.1,13.5
				c4.1-3.7,9.2-6,15.2-6c12.1,0,22,9.7,22,22V122.6L573.5,122.6z"/>
		</g>
	</g>
</g>
<path class="st3" d="M17.5,160.3v-5.2H1.1v5.2h1.1c0.3-1,0.7-2.9,1.5-3.8c0.8-0.3,1.9-0.4,3-0.4h1.2v16.5l-2.7,0.3v1h8.2v-1
	l-2.7-0.3v-16.5H12c1.1,0,2.1,0.1,3,0.4c0.8,0.9,1.3,2.8,1.5,3.8H17.5z"/>
<polygon class="st3" points="52,174 52,172.9 49.4,172.6 49.4,156.4 52,156.1 52,155.1 44.1,155.1 44.1,156.1 46.6,156.4 
	46.6,163.5 37.6,163.5 37.6,156.4 40.1,156.1 40.1,155.1 32.1,155.1 32.1,156.1 34.7,156.4 34.7,172.6 32.1,172.9 32.1,174 
	40.1,174 40.1,172.9 37.6,172.6 37.6,164.7 46.6,164.7 46.6,172.6 44.1,172.9 44.1,174 "/>
<path class="st3" d="M83.1,168.4h-1c-0.3,0.9-0.9,2.9-1.6,3.9c-0.8,0.6-2.9,0.6-4.4,0.6c-1,0-2,0-3.2-0.2v-7.9h2
	c1.6,0,2.2,0.3,2.6,0.8c0.3,0.4,0.5,1.6,0.6,2.4h1.1v-7.4H78c-0.1,0.7-0.4,1.8-0.6,2.2c-0.4,0.5-0.9,0.8-2.6,0.8h-2v-7.4h3.5
	c1.1,0,2.2,0.1,3,0.4c0.8,0.9,1.2,2.1,1.5,3.1h1.1v-4.5H67.4v1l2.6,0.3v16.2l-2.6,0.3v1h15.3L83.1,168.4z"/>
<path class="st3" d="M133.1,168.1h-1c-0.3,0.9-1.1,3.2-1.7,4.1c-0.8,0.5-2.2,0.6-3.6,0.6c-1,0-2.2,0-3.2-0.2v-16.3l2.7-0.3v-1h-8.1
	v1l2.6,0.3v16.2l-2.6,0.3v1h14.6L133.1,168.1z"/>
<polygon class="st3" points="155.7,174 155.7,172.9 153.1,172.6 153.1,156.4 155.7,156.1 155.7,155.1 147.6,155.1 147.6,156.1 
	150.2,156.4 150.2,172.6 147.6,172.9 147.6,174 "/>
<polygon class="st3" points="194.2,174 194.2,172.9 191.6,172.6 191.6,156.4 194.2,156.1 194.2,155.1 187.7,155.1 182.6,169.5 
	177.6,155.1 171.1,155.1 171.1,156.1 173.7,156.4 173.7,172.4 171.1,172.9 171.1,174 177.5,174 177.5,172.9 175,172.4 175,155.9 
	175.1,155.9 181.2,174 182.1,174 188.7,156 188.7,156 188.7,172.6 186.2,172.9 186.2,174 "/>
<path class="st3" d="M225.1,168.5c0-2.7-2.3-4.5-5.2-4.7v-0.1c2.4-0.5,4-2.4,4-4.5s-1.4-4.1-7-4.1c-2.4,0-4.7,0-7.3,0v1l2.6,0.3
	v16.2l-2.6,0.3v1h3.6c0.8,0,3,0.1,3.6,0.1C221.3,174.1,225.1,172.9,225.1,168.5 M220.8,160c0,2.4-1.3,3.7-4.9,3.7H215v-7.6h1.5
	C219.4,156.2,220.8,157.4,220.8,160 M221.9,168.8c0,2.7-1.6,4.1-4.7,4.1c-0.8,0-1.9-0.1-2.2-0.1v-8h2
	C220.5,164.8,221.9,165.9,221.9,168.8"/>
<path class="st3" d="M255.5,168.1h-1c-0.3,0.9-1.1,3.2-1.7,4.1c-0.8,0.5-2.2,0.6-3.6,0.6c-1,0-2.2,0-3.2-0.2v-16.3l2.6-0.3v-1h-8.1
	v1l2.6,0.3v16.2l-2.6,0.3v1h14.6L255.5,168.1z"/>
<path class="st3" d="M285.7,168.4h-1c-0.3,0.9-0.9,2.9-1.6,3.9c-0.8,0.6-2.9,0.6-4.4,0.6c-1,0-2,0-3.2-0.2v-7.9h2
	c1.6,0,2.2,0.3,2.6,0.8c0.3,0.4,0.5,1.6,0.6,2.4h1.1v-7.4h-1.1c-0.1,0.7-0.4,1.8-0.6,2.2c-0.4,0.5-0.9,0.8-2.6,0.8h-2v-7.4h3.5
	c1.1,0,2.2,0.1,3,0.4c0.8,0.9,1.2,2.1,1.5,3.1h1.1v-4.5H270v1l2.6,0.3v16.2L270,173v1h15.3L285.7,168.4z"/>
<path class="st3" d="M313.7,168.4c0-2.8-1.5-4.1-3.2-4.8c-1.6-0.6-2.5-0.6-3.9-1.1c-2-0.7-2.6-2-2.6-3.5c0-1.6,1.2-3.2,3.6-3.2
	c1,0,2.1,0.4,2.7,1.1c0.5,1,1,2.5,1.2,3.5h1.1v-5.5l-0.7,0.1c-1.3,0-2.4-0.3-4.4-0.3c-3.4,0-5.9,2.4-5.9,5.6c0,2.2,1.2,3.9,3.2,4.7
	c1.3,0.5,2.2,0.5,3.9,1.1c1.5,0.6,2.4,1.7,2.4,3.3c0,2.1-1.4,3.8-4.1,3.8c-1.3,0-2.5-0.8-3.3-1.5c-0.7-1.1-1.2-2.7-1.5-3.8h-1v5.9
	l0.8-0.1c1.4,0,3.4,0.6,5,0.6C311.7,174.4,313.7,171.4,313.7,168.4"/>
<path class="st3" d="M341.7,168.4c0-2.8-1.5-4.1-3.2-4.8c-1.6-0.6-2.5-0.6-3.9-1.1c-2-0.7-2.6-2-2.6-3.5c0-1.6,1.2-3.2,3.6-3.2
	c1,0,2.1,0.4,2.7,1.1c0.5,1,1,2.5,1.2,3.5h1.1v-5.5l-0.7,0.1c-1.3,0-2.4-0.3-4.4-0.3c-3.4,0-5.9,2.4-5.9,5.6c0,2.2,1.2,3.9,3.2,4.7
	c1.3,0.5,2.2,0.5,3.9,1.1c1.5,0.6,2.4,1.7,2.4,3.3c0,2.1-1.5,3.8-4.1,3.8c-1.3,0-2.5-0.8-3.3-1.5c-0.7-1.1-1.2-2.7-1.5-3.8h-1v5.9
	l0.8-0.1c1.4,0,3.4,0.6,5,0.6C339.7,174.4,341.7,171.4,341.7,168.4"/>
<path class="st3" d="M392.1,156.1v-1h-6.9v1c1.1,0.2,2.4,0.4,2.8,0.6c-0.2,1.2-1.4,4.7-2,6.1l-3,7.2l-5.2-13.6l2.6-0.3v-1h-7.8v1
	l2.1,0.3l6.8,17.8h1.1l6.5-16.2C389.8,156.5,390.8,156.3,392.1,156.1"/>
<path class="st3" d="M421.2,168.4h-1c-0.3,0.9-0.9,2.9-1.6,3.9c-0.8,0.6-2.9,0.6-4.3,0.6c-1,0-2,0-3.2-0.2v-7.9h2
	c1.6,0,2.2,0.3,2.6,0.8c0.2,0.4,0.5,1.6,0.6,2.4h1.1v-7.4h-1.1c-0.1,0.7-0.4,1.8-0.6,2.2c-0.4,0.5-0.9,0.8-2.6,0.8h-2v-7.4h3.5
	c1.1,0,2.2,0.1,3,0.4c0.8,0.9,1.2,2.1,1.4,3.1h1.1v-4.5h-14.5v1l2.6,0.3v16.2l-2.6,0.3v1h15.3L421.2,168.4z"/>
<path class="st3" d="M452,160.3v-5.2h-16.5v5.2h1.1c0.2-1,0.7-2.9,1.5-3.8c0.8-0.3,1.9-0.4,3-0.4h1.2v16.5l-2.7,0.3v1h8.2v-1
	l-2.7-0.3v-16.5h1.2c1.1,0,2.1,0.1,3,0.4c0.8,0.9,1.3,2.8,1.5,3.8H452z"/>
<path class="st3" d="M482.2,168.4h-1c-0.3,0.9-0.9,2.9-1.6,3.9c-0.8,0.6-2.9,0.6-4.3,0.6c-1,0-2,0-3.2-0.2v-7.9h2
	c1.6,0,2.2,0.3,2.6,0.8c0.2,0.4,0.5,1.6,0.6,2.4h1.1v-7.4h-1.1c-0.1,0.7-0.4,1.8-0.6,2.2c-0.4,0.5-0.9,0.8-2.6,0.8h-2v-7.4h3.5
	c1.1,0,2.2,0.1,3,0.4c0.8,0.9,1.2,2.1,1.4,3.1h1.1v-4.5h-14.5v1l2.6,0.3v16.2l-2.6,0.3v1h15.3L482.2,168.4z"/>
<path class="st3" d="M516.2,174v-1l-2.3-0.2c-2.7-1.9-5-5.9-6.1-7.7c1.8-0.4,4.3-2.2,4.3-5.3c0-2.2-1.4-4.6-7.1-4.6
	c-2.4,0-4.5,0-7.4,0v1l2.6,0.3v16.2l-2.6,0.3v1h7.8v-1l-2.4-0.3v-7.4l2.1,0.3c1.2,2.6,3.1,5.9,5.9,8.4H516.2z M509,160
	c0,2.3-1.5,4.2-4.2,4.2c-0.5,0-1.4-0.1-1.7-0.1v-8h1.7C507.5,156.2,509,157.4,509,160"/>
<path class="st3" d="M546.4,174v-1l-2.1-0.3l-6.9-17.9h-1.1l-6.4,16.3c-0.5,1.3-1.6,1.7-2.9,1.8v1h6.9v-1c-1.1-0.2-2.4-0.4-2.8-0.6
	c0.2-1.2,1.1-3.8,1.5-5h6.6l1.9,5.3l-2.6,0.3v1L546.4,174L546.4,174z M538.8,166.2h-5.6l2.8-7.3L538.8,166.2z"/>
<polygon class="st3" points="579,156.1 579,155.1 572.2,155.1 572.2,156.1 575,156.6 575,169.7 564.7,155.1 559.5,155.1 
	559.5,156.1 562.4,156.4 562.4,172.4 559.8,172.9 559.8,174 566.5,174 566.5,172.9 563.8,172.4 563.8,158.4 574.9,174.1 
	576.4,174.1 576.4,156.6 "/>
<path class="st3" d="M606.7,168.4c0-2.8-1.5-4.1-3.2-4.8c-1.6-0.6-2.5-0.6-3.9-1.1c-2-0.7-2.6-2-2.6-3.5c0-1.6,1.2-3.2,3.6-3.2
	c1,0,2.1,0.4,2.7,1.1c0.5,1,1,2.5,1.2,3.5h1.1v-5.5L605,155c-1.3,0-2.4-0.3-4.4-0.3c-3.4,0-5.9,2.4-5.9,5.6c0,2.2,1.2,3.9,3.2,4.7
	c1.3,0.5,2.2,0.5,3.9,1.1c1.5,0.6,2.4,1.7,2.4,3.3c0,2.1-1.5,3.8-4.1,3.8c-1.3,0-2.5-0.8-3.3-1.5c-0.7-1.1-1.2-2.7-1.5-3.8h-1v5.9
	l0.8-0.1c1.4,0,3.4,0.6,5,0.6C604.8,174.4,606.7,171.4,606.7,168.4"/>
</svg>
