<svg xmlns="http://www.w3.org/2000/svg" xmlns:xlink="http://www.w3.org/1999/xlink" width="198" height="50" viewBox="0 0 198 50">
    <defs>
        <path id="40afk799la" d="M0.704 0.293L28.75 0.293 28.75 35.808 0.704 35.808z"/>
        <path id="qo69wf3cbc" d="M0 48.967L197.636 48.967 197.636 0 0 0z"/>
    </defs>
    <g fill="none" fill-rule="evenodd">
        <g>
            <g>
                <g>
                    <g transform="translate(-199.000000, -30.000000) translate(198.500000, 26.000000) translate(0.500000, 0.000000) translate(0.000000, 4.000000)">
                        <path fill="#512178" d="M44.49 29.547c2.889 0 4.65-1.418 4.65-4.06 0-2.74-1.86-4.061-4.65-4.061h-5.824v8.12h5.825zM29.17 14.088H44.59c10.523 0 14.047 5.48 14.047 11.252 0 3.913-1.762 7.386-5.776 9.294l6.119 13.698H48.945L44.442 36.2h-5.776v12.132H29.17V14.088zM0 14.089L25.843 14.089 25.843 22.21 9.447 22.21 9.447 27.443 23.935 27.443 23.935 34.487 9.447 34.487 9.447 40.212 25.99 40.212 25.99 48.333 0 48.333z"/>
                        <g transform="translate(59.400000, 13.159190)">
                            <mask id="b71xpzybeb" fill="#fff">
                                <use xlink:href="#40afk799la"/>
                            </mask>
                            <path fill="#512178" d="M5.158 24.558c3.083 1.76 6.753 3.033 9.788 3.033 2.497 0 4.014-.93 4.014-2.399 0-4.597-17.474-1.32-17.474-14.235 0-5.82 4.797-10.664 13.07-10.664 4.404 0 8.516 1.126 12.872 3.133l-3.426 7.287c-3.329-1.662-6.315-2.25-8.957-2.25-2.4 0-3.77 1.028-3.77 2.396 0 4.501 17.475 1.126 17.475 14.187 0 6.018-4.601 10.762-13.755 10.762-5.237 0-10.963-1.859-14.291-3.962l4.454-7.288z" mask="url(#b71xpzybeb)"/>
                        </g>
                        <path fill="#512178" d="M90.938 14.089L100.432 14.089 100.432 28.421 111.494 14.089 121.627 14.089 111.446 26.563 122.556 48.333 112.082 48.333 105.425 33.998 100.432 40.162 100.432 48.333 90.938 48.333z"/>
                        <mask id="uqf7pyni7d" fill="#fff">
                            <use xlink:href="#qo69wf3cbc"/>
                        </mask>
                        <path fill="#512178" d="M123.925 48.331L133.421 48.331 133.421 14.088 123.925 14.088zM137.19 14.089L146.148 14.089 158.972 33.558 158.972 14.089 167.878 14.089 167.878 48.333 158.972 48.333 146.098 28.96 146.098 48.333 137.19 48.333zM171.647 14.089L197.491 14.089 197.491 22.21 181.094 22.21 181.094 27.443 195.581 27.443 195.581 34.487 181.094 34.487 181.094 40.212 197.636 40.212 197.636 48.333 171.647 48.333z" mask="url(#uqf7pyni7d)"/>
                        <path fill="#8E825B" d="M127.587 8.832L160.84 8.832 160.84 0 127.587 0z" mask="url(#uqf7pyni7d)"/>
                        <path fill="#E30613" d="M131.657 8.832L135.936 8.832 135.936 0 131.657 0zM152.606 8.832L156.698 8.832 156.698 0 152.606 0z" mask="url(#uqf7pyni7d)"/>
                        <path fill="#C7CFD4" d="M164.237 8.832L197.491 8.832 197.491 0 164.237 0z" mask="url(#uqf7pyni7d)"/>
                        <path fill="#405EA8" d="M166.242 8.832L195.514 8.832 195.514 0 166.242 0z" mask="url(#uqf7pyni7d)"/>
                        <path fill="#FFF" d="M172.579 8.832L189.211 8.832 189.211 0 172.579 0z" mask="url(#uqf7pyni7d)"/>
                        <path fill="#E30613" d="M174.631 8.832L187.124 8.832 187.124 0 174.631 0z" mask="url(#uqf7pyni7d)"/>
                        <g mask="url(#uqf7pyni7d)">
                            <g>
                                <path fill="#2D1040" d="M0 8.832L33.255 8.832 33.255 0 0 0z" transform="translate(90.936686, -0.000283)"/>
                                <path fill="#EAAC60" d="M8.315 8.832L10.387 8.832 10.387 0 8.315 0zM2.061 8.832L6.227 8.832 6.227 0 2.061 0zM22.871 8.833L24.943 8.833 24.943.001 22.871.001zM27.033 8.833L31.198 8.833 31.198.001 27.033.001z" transform="translate(90.936686, -0.000283)"/>
                            </g>
                        </g>
                    </g>
                </g>
            </g>
        </g>
    </g>
</svg>
